<svg width="32" height="32" viewBox="0 0 32 32" fill="none" xmlns="http://www.w3.org/2000/svg">
<rect width="32" height="32" rx="16" fill="url(#paint0_linear_23_1982)"/>
<path d="M2 16C2 8.26801 8.26801 2 16 2C23.732 2 30 8.26801 30 16C30 23.732 23.732 30 16 30C8.26801 30 2 23.732 2 16Z" fill="url(#paint1_linear_23_1982)"/>
<path d="M15.9167 22.25C17.3219 22.2497 18.6866 21.7793 19.7935 20.9137L23.2736 24.3938L24.393 23.2744L20.9129 19.7943C21.779 18.6872 22.2497 17.3222 22.25 15.9167C22.25 12.4246 19.4087 9.58334 15.9167 9.58334C12.4246 9.58334 9.58333 12.4246 9.58333 15.9167C9.58333 19.4087 12.4246 22.25 15.9167 22.25ZM15.9167 11.1667C18.5363 11.1667 20.6667 13.2971 20.6667 15.9167C20.6667 18.5363 18.5363 20.6667 15.9167 20.6667C13.297 20.6667 11.1667 18.5363 11.1667 15.9167C11.1667 13.2971 13.297 11.1667 15.9167 11.1667Z" fill="#C0C0C0"/>
<path d="M17.0345 14.7973C17.3345 15.0981 17.5 15.4955 17.5 15.9167H19.0833C19.084 15.5006 19.0023 15.0885 18.8427 14.7042C18.6832 14.3199 18.4491 13.9711 18.1539 13.6778C16.9553 12.4808 14.8772 12.4808 13.6794 13.6778L14.7973 14.7988C15.3989 14.1988 16.436 14.2003 17.0345 14.7973Z" fill="#E7E7E7"/>
<defs>
<linearGradient id="paint0_linear_23_1982" x1="16" y1="0" x2="16" y2="32" gradientUnits="userSpaceOnUse">
<stop stop-color="#838383"/>
<stop offset="0.333333" stop-color="#999999"/>
<stop offset="0.666667" stop-color="#B9B9B9"/>
<stop offset="1" stop-color="#C9C9C9"/>
</linearGradient>
<linearGradient id="paint1_linear_23_1982" x1="30.0142" y1="16" x2="2" y2="16" gradientUnits="userSpaceOnUse">
<stop stop-color="#1282A2"/>
<stop offset="0.375" stop-color="#147794"/>
<stop offset="0.572917" stop-color="#157C9A"/>
<stop offset="1" stop-color="#1282A2"/>
</linearGradient>
</defs>
</svg>
