<svg width="40" height="40" viewBox="0 0 40 40" fill="none" xmlns="http://www.w3.org/2000/svg">
<rect width="40" height="40" rx="2" fill="#03071E"/>
<path d="M11.7656 12.7656C12.0586 12.4727 12.456 12.3082 12.8703 12.3082C13.2846 12.3082 13.6819 12.4727 13.975 12.7656L19.5 18.2906L25.025 12.7656C25.3197 12.481 25.7143 12.3235 26.124 12.3271C26.5337 12.3307 26.9256 12.495 27.2153 12.7847C27.505 13.0744 27.6693 13.4663 27.6729 13.876C27.6764 14.2856 27.519 14.6803 27.2343 14.975L21.7093 20.5L27.2343 26.025C27.519 26.3197 27.6764 26.7144 27.6729 27.1241C27.6693 27.5338 27.505 27.9257 27.2153 28.2154C26.9256 28.5051 26.5337 28.6694 26.124 28.673C25.7143 28.6765 25.3197 28.519 25.025 28.2344L19.5 22.7094L13.975 28.2344C13.6803 28.519 13.2856 28.6765 12.8759 28.673C12.4662 28.6694 12.0743 28.5051 11.7846 28.2154C11.4949 27.9257 11.3306 27.5338 11.327 27.1241C11.3235 26.7144 11.481 26.3197 11.7656 26.025L17.2906 20.5L11.7656 14.975C11.4727 14.682 11.3081 14.2847 11.3081 13.8703C11.3081 13.456 11.4727 13.0587 11.7656 12.7656V12.7656Z" fill="white"/>
</svg>
