<svg width="40" height="40" viewBox="0 0 40 40" fill="none" xmlns="http://www.w3.org/2000/svg">
<rect width="40" height="40" rx="2" fill="#03071E"/>
<path d="M13 10C11.897 10 11 10.897 11 12V24C11 25.103 11.897 26 13 26H16.586L20 29.414L23.414 26H27C28.103 26 29 25.103 29 24V12C29 10.897 28.103 10 27 10H13ZM27 24H22.586L20 26.586L17.414 24H13V12H27V24Z" fill="white"/>
<path d="M13 10C11.897 10 11 10.897 11 12V24C11 25.103 11.897 26 13 26H16.586L20 29.414L23.414 26H27C28.103 26 29 25.103 29 24V12C29 10.897 28.103 10 27 10H13ZM27 24H22.586L20 26.586L17.414 24H13V12H27V24Z" fill="white"/>
<path d="M15 15H25V17H15V15ZM15 19H22V21H15V19Z" fill="white"/>
</svg>
