<svg width="40" height="40" viewBox="0 0 40 40" fill="none" xmlns="http://www.w3.org/2000/svg">
<path d="M20 1.25L10 11.25H16.25V20.625H23.75V11.25H30L20 1.25Z" fill="#4D5357"/>
<path d="M20 38.75C17.9375 38.75 16.25 37 16.25 34.8125V29C16.25 26.8125 17.9375 25.0625 20 25.0625C22.0625 25.0625 23.75 26.8125 23.75 29V34.8125C23.75 37 22.0625 38.75 20 38.75ZM20 27.125C18.9375 27.125 18.125 27.9375 18.125 29V34.8125C18.125 35.8125 18.9375 36.6875 20 36.6875C21.0625 36.6875 21.875 35.875 21.875 34.8125V29C21.875 27.9375 21.0625 27.125 20 27.125Z" fill="#4D5357"/>
<path d="M13.75 25H6.25V26.875H9.0625V38.75H10.9375V26.875H13.75V25Z" fill="#4D5357"/>
<path d="M30 25H26.25V38.75H28.125V32.9375H30C32.0625 32.9375 33.75 31.1875 33.75 29C33.75 26.75 32.0625 25 30 25ZM30 30.8125H28.125V27.125H30C31.0625 27.125 31.875 27.9375 31.875 29C31.875 30.0625 31.0625 30.8125 30 30.8125Z" fill="#4D5357"/>
</svg>
