<svg width="72" height="73" viewBox="0 0 72 73" fill="none" xmlns="http://www.w3.org/2000/svg">
<ellipse cx="32.4996" cy="38.6625" rx="26.8842" ry="20.6944" transform="rotate(-125.735 32.4996 38.6625)" fill="url(#paint0_linear_21_2642)"/>
<ellipse cx="36.8086" cy="33.3231" rx="19.2271" ry="22.2174" transform="rotate(-125.735 36.8086 33.3231)" fill="white"/>
<path d="M29.5107 33.0631C28.4482 32.4715 27.3677 32.0791 26.269 31.8859V41.756H22.6831V31.8859C21.5603 32.0791 20.4797 32.4715 19.4414 33.0631L18.2461 30.4552C19.1275 29.924 20.0994 29.5195 21.1619 29.2418C22.2364 28.9641 23.3411 28.8253 24.4761 28.8253C25.611 28.8253 26.7096 28.9641 27.7721 29.2418C28.8467 29.5195 29.8246 29.924 30.706 30.4552L29.5107 33.0631ZM36.9965 28.8253C38.1918 28.8253 39.2422 29.0667 40.1477 29.5497C41.0653 30.0206 41.7716 30.7148 42.2666 31.6324C42.7737 32.5379 43.0272 33.6305 43.0272 34.9103V41.756H39.4414V38.9489H34.4973V41.756H30.9658V34.9103C30.9658 33.6305 31.2133 32.5379 31.7084 31.6324C32.2154 30.7148 32.9217 30.0206 33.8273 29.5497C34.7448 29.0667 35.8013 28.8253 36.9965 28.8253ZM39.4414 36.178V34.6024C39.4414 33.6728 39.2181 32.9725 38.7713 32.5017C38.3246 32.0308 37.727 31.7954 36.9784 31.7954C36.2178 31.7954 35.6141 32.0308 35.1674 32.5017C34.7207 32.9725 34.4973 33.6728 34.4973 34.6024V36.178H39.4414ZM49.4365 42.0095C48.4103 42.0095 47.4142 41.8828 46.4483 41.6292C45.4825 41.3757 44.6977 41.0376 44.094 40.615L45.2712 37.9709C45.8386 38.3452 46.4966 38.6471 47.2452 38.8765C47.9937 39.1059 48.7302 39.2205 49.4546 39.2205C50.831 39.2205 51.5192 38.8765 51.5192 38.1883C51.5192 37.8261 51.32 37.5604 50.9216 37.3914C50.5352 37.2103 49.9074 37.0232 49.0381 36.83C48.0843 36.6248 47.2874 36.4074 46.6475 36.178C46.0076 35.9366 45.4583 35.5562 44.9995 35.0371C44.5407 34.5179 44.3113 33.8177 44.3113 32.9363C44.3113 32.1636 44.5226 31.4694 44.9452 30.8536C45.3678 30.2258 45.9956 29.7308 46.8286 29.3686C47.6738 29.0064 48.7061 28.8253 49.9255 28.8253C50.7586 28.8253 51.5796 28.9219 52.3885 29.115C53.1974 29.2961 53.9097 29.5678 54.5255 29.93L53.4208 32.5922C52.2134 31.9402 51.0423 31.6143 49.9074 31.6143C49.195 31.6143 48.6759 31.7229 48.3499 31.9402C48.0239 32.1455 47.8609 32.4171 47.8609 32.7552C47.8609 33.0933 48.0541 33.3468 48.4405 33.5158C48.8268 33.6849 49.4486 33.8599 50.3058 34.041C51.2717 34.2463 52.0685 34.4696 52.6964 34.7111C53.3363 34.9405 53.8856 35.3148 54.3444 35.8339C54.8153 36.341 55.0507 37.0352 55.0507 37.9166C55.0507 38.6772 54.8394 39.3654 54.4168 39.9812C53.9943 40.5969 53.3604 41.0919 52.5153 41.4662C51.6701 41.8284 50.6439 42.0095 49.4365 42.0095Z" fill="#263238"/>
<circle cx="37.4997" cy="24.756" r="2" fill="url(#paint1_linear_21_2642)"/>
<defs>
<linearGradient id="paint0_linear_21_2642" x1="38.5012" y1="22.0381" x2="3.67651" y2="41.3317" gradientUnits="userSpaceOnUse">
<stop stop-color="#8D0111"/>
<stop offset="0.808252" stop-color="#3B010B"/>
<stop offset="0.983416" stop-color="#62000E"/>
</linearGradient>
<linearGradient id="paint1_linear_21_2642" x1="37.9462" y1="23.1493" x2="35.0813" y2="24.3711" gradientUnits="userSpaceOnUse">
<stop stop-color="#8D0111"/>
<stop offset="0.808252" stop-color="#3B010B"/>
<stop offset="0.983416" stop-color="#62000E"/>
</linearGradient>
</defs>
</svg>
